<svg width="54" height="54" viewBox="0 0 54 54" fill="none" xmlns="http://www.w3.org/2000/svg">
<path d="M27.3484 40.4697C19.5421 40.4697 13.1914 34.1155 13.1914 26.3051C13.1914 18.4947 19.5421 12.1405 27.3484 12.1405C35.1541 12.1405 41.5048 18.4947 41.5048 26.3051C41.5048 34.1155 35.1541 40.4697 27.3484 40.4697ZM27.3484 12.8905C19.9556 12.8905 13.941 18.9083 13.941 26.3051C13.941 33.7019 19.9556 39.7197 27.3484 39.7197C34.741 39.7197 40.7553 33.7019 40.7553 26.3051C40.7553 18.9083 34.741 12.8905 27.3484 12.8905Z" fill="#FFE1B6"/>
<path d="M22.4003 11.0711C23.3493 10.7627 24.1284 10.1725 24.6717 9.42032C24.6717 9.42032 22.3247 9.80216 21.3802 7.83396C21.8241 6.93787 21.8572 5.85235 21.3724 4.89012C21.0459 4.24218 20.5351 3.74758 19.9336 3.44207C19.6242 4.04098 19.494 4.74077 19.6039 5.45779C19.7684 6.52906 20.4356 7.39965 21.3265 7.86987C21.7037 10.0057 19.5929 11.0715 19.5929 11.0715C20.4744 11.3605 21.4513 11.3796 22.4003 11.0711ZM15.6416 6.94952C15.8943 6.76578 15.9503 6.41186 15.7667 6.15893C15.5831 5.90606 15.2293 5.84999 14.9765 6.03373C14.7239 6.21748 14.6678 6.57134 14.8515 6.82427C15.035 7.07714 15.3889 7.13321 15.6416 6.94952ZM12.5661 9.18518C12.8188 9.00144 12.8749 8.64752 12.6912 8.39464C12.5076 8.14171 12.1539 8.08565 11.9011 8.26939C11.6484 8.45313 11.5924 8.80705 11.776 9.05993C11.9596 9.31286 12.3134 9.36892 12.5661 9.18518ZM18.5772 5.45278C18.8743 5.35612 19.037 5.03682 18.9403 4.73953C18.8439 4.4423 18.5247 4.27956 18.2276 4.3761C17.9305 4.47276 17.7678 4.79211 17.8644 5.08934C17.9609 5.38663 18.2801 5.54932 18.5772 5.45278ZM18.8795 10.7652C19.1085 10.8851 19.3439 10.9924 19.5902 11.0724C19.5905 11.0718 19.5905 11.0712 19.5907 11.0706C19.5914 11.0709 19.5921 11.0713 19.5929 11.0715C19.8052 10.4192 19.866 9.72403 19.7733 9.04039C19.6757 8.31685 19.4054 7.60602 18.9461 6.97362C18.356 6.16084 17.5482 5.59864 16.6583 5.31514C16.6583 5.31514 16.6583 5.3152 16.6583 5.31525C16.6582 5.3152 16.6581 5.3152 16.658 5.31514C16.3643 6.20205 16.344 7.18641 16.6543 8.14177C17.0375 9.32192 17.8613 10.2334 18.8795 10.7652ZM25.4468 3.76154C25.7592 3.76154 26.0125 3.5081 26.0125 3.1955C26.0125 2.8829 25.7592 2.62952 25.4468 2.62952C25.1344 2.62952 24.8812 2.8829 24.8812 3.1955C24.8812 3.5081 25.1344 3.76154 25.4468 3.76154ZM4.25059 24.9704C4.56302 24.9704 4.81621 24.7169 4.81621 24.4044C4.81621 24.0918 4.56302 23.8384 4.25059 23.8384C3.93811 23.8384 3.68493 24.0918 3.68493 24.4044C3.68493 24.7169 3.93811 24.9704 4.25059 24.9704ZM22.1926 4.27736C22.4898 4.18082 22.6524 3.86146 22.5558 3.56417C22.4593 3.26688 22.1401 3.10419 21.843 3.20079C21.5459 3.29739 21.3833 3.61669 21.4798 3.91398C21.5764 4.21127 21.8955 4.37396 22.1926 4.27736ZM29.2483 3.76154C29.5607 3.76154 29.814 3.5081 29.814 3.1955C29.814 2.8829 29.5607 2.62952 29.2483 2.62952C28.9359 2.62952 28.6826 2.8829 28.6826 3.1955C28.6826 3.5081 28.9359 3.76154 29.2483 3.76154ZM24.6747 9.41936C24.6751 9.41886 24.6753 9.41835 24.6757 9.41784C24.6764 9.41829 24.6768 9.41886 24.6775 9.41931C25.0769 8.86993 25.3495 8.23511 25.4742 7.56346C25.6091 6.83941 25.5717 6.07229 25.3281 5.32201C25.0178 4.36659 24.4231 3.58213 23.6644 3.03737C23.6644 3.03737 23.6644 3.03743 23.6644 3.03749C23.6642 3.03743 23.6642 3.03732 23.6641 3.03726C23.1108 3.78997 22.7876 4.71989 22.7876 5.72445C22.7876 6.96551 23.2896 8.08728 24.094 8.90777C24.2746 9.09258 24.4653 9.26731 24.6747 9.41936ZM19.5877 11.0742C19.5877 11.0742 17.4735 12.1631 15.9674 10.5832C16.1127 9.59376 15.8091 8.55114 15.0507 7.78588C14.5401 7.27057 13.9015 6.95808 13.2351 6.8536C13.1259 7.51882 13.2181 8.22458 13.5441 8.87252C14.0313 9.84056 14.9348 10.4623 15.9274 10.634C16.9458 12.5487 15.2673 14.2149 15.2673 14.2149C16.1951 14.2172 17.13 13.9334 17.9373 13.3466C18.7446 12.7598 19.3032 11.9577 19.5877 11.0742ZM5.79344 17.8943C6.09056 17.9909 6.40974 17.8282 6.50623 17.5309C6.60283 17.2336 6.44018 16.9143 6.14306 16.8177C5.84593 16.7211 5.52686 16.8838 5.43026 17.1811C5.33377 17.4784 5.49637 17.7977 5.79344 17.8943ZM8.02601 17.8999C9.02772 18.6281 10.2275 18.8813 11.362 18.7143C11.6195 18.6768 11.8749 18.625 12.1229 18.5442C12.1226 18.5436 12.1224 18.543 12.1222 18.5425C12.1229 18.5421 12.1237 18.5421 12.1244 18.5419C11.915 17.8953 11.5598 17.3028 11.0899 16.807C10.5837 16.2724 9.94344 15.8506 9.19385 15.607C8.23896 15.2965 7.25515 15.3167 6.36873 15.6107C6.36873 15.6107 6.36873 15.6107 6.36878 15.6107C6.36867 15.6108 6.36855 15.6108 6.3685 15.6109C6.65184 16.5011 7.21374 17.3094 8.02601 17.8999ZM12.1216 21.3561C12.4299 20.4066 12.4107 19.4291 12.1219 18.5471C12.1219 18.5471 11.0511 20.6715 8.90455 20.2791C8.44077 19.3931 7.58266 18.7281 6.51963 18.555C5.80374 18.4385 5.10354 18.5612 4.50299 18.8686C4.80541 19.471 5.29473 19.9877 5.93911 20.3202C6.90199 20.8168 7.9981 20.7885 8.90191 20.3436C10.8507 21.2937 10.4716 23.6288 10.4716 23.6288C11.2235 23.0851 11.8132 22.3056 12.1216 21.3561ZM6.37559 24.2854C7.57332 24.6748 8.81701 24.5394 9.85512 24.0077C10.0695 23.8982 10.2759 23.7734 10.4709 23.6315C10.4706 23.6309 10.4701 23.6306 10.4698 23.6301C10.4704 23.6297 10.4711 23.6292 10.4716 23.6288C10.0735 23.0797 9.55388 22.6267 8.95519 22.3007C8.30799 21.9475 7.56763 21.7436 6.77809 21.7436C5.77408 21.7436 4.84468 22.067 4.09238 22.6206C4.09238 22.6207 4.09244 22.6207 4.09249 22.6208C4.09238 22.6208 4.09232 22.6209 4.09221 22.6209C4.63667 23.38 5.4207 23.975 6.37559 24.2854ZM4.61878 21.5117C4.91591 21.6083 5.23497 21.4456 5.33152 21.1483C5.42807 20.851 5.26546 20.5317 4.96834 20.4351C4.67127 20.3385 4.35209 20.5012 4.25555 20.7985C4.15906 21.0958 4.3216 21.4151 4.61878 21.5117ZM14.4872 14.1429C14.7444 14.1871 15.0039 14.2168 15.2651 14.2166C15.2651 14.216 15.2651 14.2154 15.2651 14.2148C15.2659 14.2148 15.2666 14.2149 15.2673 14.2149C15.2678 13.5372 15.1138 12.8659 14.8216 12.2506C14.5054 11.5834 14.026 10.9823 13.3867 10.5175C12.5744 9.92702 11.6325 9.64212 10.6987 9.64758V9.64775C10.6986 9.64775 10.6984 9.64769 10.6983 9.64769C10.6929 10.5821 10.9777 11.5245 11.5678 12.3372C12.2952 13.3389 13.3574 13.9506 14.4872 14.1429ZM14.3955 16.8905C14.982 16.0828 15.2656 15.1472 15.2633 14.2191C15.2633 14.2191 13.5888 15.9084 11.6685 14.8715C11.5012 13.8856 10.8904 12.9877 9.93282 12.4945C9.28799 12.1623 8.58419 12.0625 7.91804 12.1692C8.01965 12.8356 8.32544 13.4783 8.83557 13.9938C9.59788 14.7638 10.6492 15.0757 11.6461 14.9322C13.2061 16.4383 12.1244 18.5419 12.1244 18.5419C13.0074 18.2572 13.809 17.6982 14.3955 16.8905ZM9.44626 11.6416C9.69899 11.8253 10.0528 11.7692 10.2364 11.5164C10.42 11.2634 10.3641 10.9095 10.1113 10.7258C9.85855 10.5421 9.50477 10.5981 9.32113 10.851C9.13754 11.1039 9.19352 11.4578 9.44626 11.6416ZM7.21183 14.7187C7.46456 14.9025 7.81828 14.8464 8.00192 14.5935C8.18557 14.3407 8.12953 13.9867 7.87679 13.8029C7.624 13.6192 7.27028 13.6752 7.08664 13.9281C6.90305 14.181 6.95904 14.535 7.21183 14.7187ZM30.0177 9.41931C30.0177 9.41931 27.6675 9.05678 27.3773 6.89289C28.0761 6.1779 28.4429 5.15577 28.2789 4.09075C28.1685 3.3735 27.8355 2.74515 27.3577 2.26868C26.8787 2.74256 26.5387 3.36782 26.4218 4.08376C26.2473 5.15346 26.613 6.18775 27.3151 6.91045C27.0141 9.05835 24.6775 9.41931 24.6775 9.41931C25.4266 9.96665 26.3498 10.287 27.3476 10.287C28.3454 10.287 29.2686 9.96665 30.0177 9.41931ZM29.6461 8.80565C29.7552 9.01923 29.8795 9.22498 30.0208 9.41931C30.0213 9.41897 30.0217 9.41852 30.0221 9.41818C30.0226 9.4188 30.023 9.41942 30.0235 9.4201C30.5771 9.01816 31.0336 8.49316 31.3599 7.88749C31.7075 7.2436 31.9076 6.50807 31.9076 5.72445C31.9076 4.71989 31.5843 3.78997 31.031 3.03726C31.0309 3.03726 31.0309 3.03732 31.0309 3.03737C31.0309 3.03726 31.0308 3.03715 31.0308 3.03709C30.2721 3.58185 29.6775 4.3663 29.3672 5.32173C28.9777 6.52107 29.1137 7.76646 29.6461 8.80565ZM42.5742 21.3553C42.8825 22.3048 43.4722 23.0843 44.2241 23.628C44.2241 23.628 43.8424 21.2796 45.8096 20.3346C46.7051 20.7787 47.79 20.812 48.7517 20.3268C49.3994 20.0001 49.8938 19.489 50.199 18.8872C49.6005 18.5777 48.9011 18.4473 48.1844 18.5573C47.1137 18.7218 46.2436 19.3895 45.7737 20.2809C43.639 20.6583 42.5738 18.5463 42.5738 18.5463C42.285 19.4283 42.2658 20.4058 42.5742 21.3553ZM48.1895 17.53C48.286 17.8273 48.6052 17.9901 48.9023 17.8934C49.1994 17.7969 49.362 17.4775 49.2655 17.1802C49.169 16.883 48.8498 16.7203 48.5527 16.8169C48.2555 16.9135 48.0929 17.2328 48.1895 17.53ZM46.6936 14.5928C46.8772 14.8457 47.2309 14.9018 47.4837 14.718C47.7365 14.5343 47.7924 14.1804 47.6089 13.9274C47.4252 13.6746 47.0714 13.6185 46.8186 13.8022C46.566 13.986 46.5099 14.3399 46.6936 14.5928ZM49.8798 24.4035C49.8798 24.7161 50.133 24.9695 50.4454 24.9695C50.7578 24.9695 51.0111 24.7161 51.0111 24.4035C51.0111 24.0909 50.7578 23.8375 50.4454 23.8375C50.133 23.8375 49.8798 24.0909 49.8798 24.4035ZM45.2492 11.6408C45.5019 11.4572 45.558 11.1032 45.3743 10.8503C45.1908 10.5974 44.837 10.5414 44.5842 10.7251C44.3315 10.9088 44.2755 11.2628 44.4591 11.5156C44.6427 11.7685 44.9965 11.8246 45.2492 11.6408ZM44.2251 28.9769C44.2251 28.9769 44.5874 26.6255 46.7502 26.335C47.4647 27.0342 48.4863 27.4013 49.5508 27.2373C50.2676 27.1268 50.8956 26.7935 51.3718 26.3154C50.8982 25.8361 50.2733 25.496 49.5578 25.3789C48.4886 25.2044 47.4549 25.5702 46.7326 26.2728C44.5859 25.9717 44.2251 23.6337 44.2251 23.6337C43.678 24.3833 43.3579 25.3069 43.3579 26.3053C43.3579 27.3036 43.678 28.2274 44.2251 28.9769ZM49.7274 20.4343C49.4303 20.531 49.2677 20.8502 49.3642 21.1475C49.4608 21.4448 49.7798 21.6075 50.077 21.5109C50.3741 21.4143 50.5367 21.095 50.4402 20.7977C50.3436 20.5004 50.0246 20.3378 49.7274 20.4343ZM47.918 21.7428C46.68 21.7428 45.5608 22.2433 44.741 23.0454C44.5545 23.2273 44.3782 23.4197 44.225 23.631C44.2255 23.6313 44.226 23.6316 44.2266 23.632C44.2261 23.6325 44.2255 23.6331 44.2251 23.6337C44.773 24.0325 45.4058 24.3048 46.0753 24.4299C46.8005 24.566 47.5688 24.5289 48.3201 24.2846C49.275 23.9742 50.0591 23.3792 50.6035 22.6201C50.6035 22.6201 50.6035 22.6201 50.6034 22.6201C50.6035 22.62 50.6036 22.6199 50.6036 22.6199C49.8514 22.0662 48.922 21.7428 47.918 21.7428ZM45.5019 15.6061C44.3238 15.9891 43.4136 16.812 42.8818 17.8291C42.7611 18.0593 42.6532 18.296 42.5729 18.5437C42.5734 18.5439 42.5741 18.5439 42.5746 18.5441C42.5745 18.5448 42.5741 18.5455 42.5738 18.5463C43.2187 18.7563 43.9051 18.8172 44.5811 18.7289C45.3121 18.6339 46.0308 18.3635 46.6695 17.8992C47.4818 17.3087 48.0437 16.5005 48.327 15.6102C48.3269 15.6102 48.327 15.6102 48.3269 15.6102C48.327 15.6101 48.3269 15.6099 48.327 15.6098C47.4406 15.3159 46.4567 15.2957 45.5019 15.6061ZM32.5026 4.27708C32.7997 4.37368 33.1188 4.21099 33.2153 3.91376C33.3119 3.61647 33.1492 3.29711 32.8522 3.20057C32.5551 3.10397 32.2359 3.2666 32.1394 3.56389C32.0428 3.86123 32.2055 4.18048 32.5026 4.27708ZM35.7492 6.97305C35.0214 7.97531 34.7684 9.17572 34.9352 10.3108C34.9727 10.5685 35.0246 10.8241 35.1053 11.0721C35.1059 11.0719 35.1064 11.0717 35.107 11.0715C35.1072 11.0722 35.1073 11.0729 35.1076 11.0737C35.7493 10.8656 36.3374 10.5133 36.8309 10.0479C37.3701 9.54 37.7958 8.89634 38.0409 8.14155C38.3511 7.18612 38.3309 6.20177 38.0371 5.31486C38.0371 5.31486 38.0371 5.31486 38.037 5.31491C38.037 5.3148 38.037 5.31469 38.0369 5.31463C37.1472 5.59813 36.3393 6.16034 35.7492 6.97305ZM42.5711 18.5412C42.5711 18.5412 41.4828 16.4257 43.0619 14.9188C44.0508 15.0642 45.0928 14.7604 45.8576 14.0016C46.3726 13.4907 46.6849 12.8518 46.7894 12.185C46.1245 12.0757 45.4192 12.168 44.7715 12.4942C43.8041 12.9816 43.1827 13.8857 43.0111 14.8788C41.0974 15.8977 39.4322 14.2184 39.4322 14.2184C39.4299 15.1465 39.7135 16.0822 40.3 16.8898C40.8865 17.6975 41.6881 18.2565 42.5711 18.5412ZM32.2949 11.0709C33.2439 11.3794 34.2208 11.3602 35.1023 11.0712C35.1023 11.0712 32.9792 9.99981 33.3713 7.85203C34.2569 7.38805 34.9214 6.52946 35.0944 5.46584C35.2109 4.74955 35.0882 4.04898 34.781 3.44809C34.179 3.75067 33.6626 4.24026 33.3302 4.885C32.8339 5.84841 32.8622 6.94513 33.3068 7.84944C32.3573 9.79935 30.0235 9.4201 30.0235 9.4201C30.5669 10.1723 31.3459 10.7624 32.2949 11.0709ZM36.118 5.4525C36.4151 5.5491 36.7342 5.38635 36.8308 5.08906C36.9273 4.79177 36.7647 4.47253 36.4676 4.37587C36.1705 4.27933 35.8514 4.44202 35.7548 4.73931C35.6583 5.03654 35.8209 5.3559 36.118 5.4525ZM42.1292 9.18468C42.382 9.36842 42.7357 9.31235 42.9193 9.05948C43.103 8.8066 43.047 8.45257 42.7942 8.26894C42.5415 8.0852 42.1877 8.14127 42.0041 8.39414C41.8205 8.64707 41.8764 9.00099 42.1292 9.18468ZM41.3089 10.5168C40.3063 11.2456 39.6947 12.3101 39.5033 13.4423C39.4597 13.6981 39.4303 13.9562 39.4305 14.2162C39.431 14.2162 39.4317 14.2161 39.4323 14.2161C39.4323 14.2168 39.4322 14.2177 39.4322 14.2184C40.109 14.2189 40.7795 14.0649 41.3942 13.7729C42.0614 13.4566 42.6627 12.9768 43.1275 12.3366C43.7177 11.5239 44.0024 10.5815 43.997 9.64724H43.9968C43.9968 9.64713 43.9968 9.64696 43.9968 9.6469C43.063 9.64144 42.1211 9.92635 41.3089 10.5168ZM36.758 13.346C37.5652 13.9328 38.5003 14.2167 39.4279 14.2144C39.4279 14.2144 37.7396 12.539 38.7759 10.6176C39.7614 10.4501 40.6586 9.83898 41.1516 8.88091C41.4836 8.23573 41.5833 7.53155 41.4767 6.86503C40.8107 6.96675 40.1683 7.27265 39.6531 7.78301C38.8836 8.54579 38.5718 9.59765 38.7153 10.5952C37.2101 12.156 35.1076 11.0737 35.1076 11.0737C35.3921 11.9572 35.9508 12.7592 36.758 13.346ZM39.0537 6.94896C39.3065 7.1327 39.6603 7.07669 39.8439 6.82376C40.0275 6.57089 39.9715 6.21691 39.7187 6.03317C39.466 5.84948 39.1123 5.90549 38.9286 6.15842C38.745 6.4113 38.801 6.76527 39.0537 6.94896ZM30.0213 43.192C30.0209 43.1925 30.0206 43.1931 30.0203 43.1936C30.0197 43.1931 30.0191 43.1925 30.0185 43.1922C29.6193 43.7411 29.3468 44.3755 29.2221 45.0466C29.0868 45.7711 29.1242 46.5387 29.368 47.2895C29.6783 48.2449 30.273 49.0293 31.0316 49.5741C31.0316 49.574 31.0316 49.574 31.0317 49.574C31.0317 49.574 31.0318 49.5741 31.0319 49.5741C31.5852 48.8215 31.9085 47.8916 31.9085 46.8869C31.9085 45.6484 31.4082 44.5285 30.6065 43.7083C30.4247 43.5217 30.2325 43.3454 30.0213 43.192ZM35.82 41.8481C35.59 41.7273 35.3533 41.6193 35.1058 41.539C35.1056 41.5396 35.1055 41.5402 35.1054 41.5408C35.1046 41.5405 35.1039 41.5401 35.1032 41.5399C34.893 42.1856 34.8322 42.8731 34.9208 43.55C35.016 44.2808 35.2862 44.9993 35.7499 45.6379C36.34 46.4506 37.1479 47.0128 38.0376 47.2963C38.0377 47.2963 38.0377 47.2962 38.0377 47.2961L38.038 47.2963C38.3317 46.4095 38.352 45.425 38.0417 44.4696C37.6589 43.2908 36.8365 42.3802 35.82 41.8481ZM42.1299 43.4263C41.8771 43.61 41.8212 43.9639 42.0047 44.2168C42.1884 44.4697 42.5422 44.5258 42.7949 44.342C43.0476 44.1583 43.1037 43.8043 42.92 43.5515C42.7364 43.2986 42.3827 43.2425 42.1299 43.4263ZM29.2491 48.85C28.9367 48.85 28.6835 49.1033 28.6835 49.4159C28.6835 49.7286 28.9367 49.9819 29.2491 49.9819C29.5616 49.9819 29.8148 49.7286 29.8148 49.4159C29.8148 49.1033 29.5616 48.85 29.2491 48.85ZM35.1083 41.5372C35.1083 41.5372 37.2226 40.4483 38.7286 42.0282C38.5833 43.0176 38.887 44.0604 39.6452 44.8255C40.156 45.3408 40.7945 45.6534 41.461 45.7579C41.5702 45.0926 41.4778 44.3869 41.152 43.7389C40.6647 42.7708 39.7611 42.1491 38.7686 41.9775C37.7502 40.0628 39.4286 38.3965 39.4286 38.3965C38.5011 38.3943 37.566 38.678 36.7587 39.2649C35.9515 39.8517 35.3928 40.6537 35.1083 41.5372ZM32.2957 41.5403C31.3467 41.8488 30.5677 42.4389 30.0242 43.1911C30.0242 43.1911 32.3714 42.8092 33.3158 44.7775C32.872 45.6735 32.8388 46.7591 33.3236 47.7213C33.6501 48.3693 34.1609 48.8639 34.7625 49.1693C35.0718 48.5705 35.202 47.8707 35.0921 47.1537C34.9277 46.0823 34.2605 45.2118 33.3694 44.7415C32.9922 42.6057 35.1032 41.5399 35.1032 41.5399C34.2216 41.251 33.2447 41.2318 32.2957 41.5403ZM40.2051 38.4679C39.9492 38.4242 39.691 38.3947 39.4308 38.3948C39.4308 38.3955 39.4309 38.3961 39.4309 38.3966C39.4302 38.3966 39.4294 38.3965 39.4286 38.3965C39.4282 39.0725 39.5817 39.7421 39.8725 40.3562C40.1886 41.0252 40.6685 41.628 41.3093 42.0939C42.1216 42.6844 43.0635 42.9693 43.9973 42.9638V42.9637C43.9975 42.9637 43.9976 42.9637 43.9976 42.9637C44.0031 42.0294 43.7184 41.0869 43.1282 40.2742C42.4 39.2714 41.3364 38.6595 40.2051 38.4679ZM32.5034 48.334C32.2063 48.4306 32.0437 48.7499 32.1402 49.0473C32.2367 49.3446 32.5558 49.5073 32.853 49.4107C33.1501 49.3141 33.3127 48.9948 33.2161 48.6975C33.1196 48.4001 32.8005 48.2375 32.5034 48.334ZM24.6783 43.1922C24.6783 43.1922 27.0285 43.5547 27.3188 45.7186C26.62 46.4336 26.2531 47.4557 26.4171 48.5207C26.5275 49.238 26.8605 49.8664 27.3383 50.3428C27.8174 49.8689 28.1573 49.2436 28.2743 48.5277C28.4488 47.458 28.0831 46.4236 27.381 45.7011C27.6818 43.5531 30.0185 43.1922 30.0185 43.1922C29.2694 42.6448 28.3462 42.3244 27.3485 42.3244C26.3507 42.3244 25.4275 42.6448 24.6783 43.1922ZM36.1188 47.1587C35.8217 47.2553 35.6591 47.5746 35.7556 47.8719C35.8521 48.1692 36.1713 48.3318 36.4684 48.2353C36.7655 48.1387 36.9281 47.8194 36.8316 47.5221C36.7351 47.2248 36.4159 47.0621 36.1188 47.1587ZM39.0545 45.6619C38.8017 45.8456 38.7457 46.1996 38.9293 46.4525C39.1129 46.7054 39.4667 46.7615 39.7194 46.5777C39.9722 46.394 40.0282 46.0401 39.8446 45.7871C39.6609 45.5343 39.3072 45.4782 39.0545 45.6619ZM48.3205 28.326C47.1214 27.9362 45.8763 28.0725 44.8375 28.6056C44.6244 28.7146 44.419 28.8389 44.2251 28.9801C44.2255 28.9805 44.2259 28.9808 44.2262 28.9814C44.2256 28.9818 44.225 28.9823 44.2244 28.9826C44.6264 29.5372 45.1518 29.9944 45.758 30.321C46.4011 30.6682 47.1356 30.8679 47.918 30.8679C48.922 30.8679 49.8514 30.5445 50.6036 29.9908C50.6036 29.9908 50.6036 29.9908 50.6035 29.9908C50.6036 29.9907 50.6037 29.9907 50.6037 29.9905C50.0593 29.2314 49.2753 28.6364 48.3205 28.326ZM42.5745 31.2554C42.2661 32.2049 42.2853 33.1823 42.5741 34.0644C42.5741 34.0644 43.645 31.9401 45.7915 32.3325C46.2552 33.2184 47.1133 33.8834 48.1763 34.0565C48.8922 34.173 49.5924 34.0502 50.193 33.7429C49.8906 33.1405 49.4013 32.6238 48.757 32.2912C47.7941 31.7946 46.6979 31.8231 45.794 32.2679C43.8453 31.3178 44.2244 28.9826 44.2244 28.9826C43.4726 29.5264 42.8828 30.3059 42.5745 31.2554ZM50.4454 27.6411C50.133 27.6411 49.8798 27.8945 49.8798 28.2071C49.8798 28.5197 50.133 28.7731 50.4454 28.7731C50.7578 28.7731 51.0111 28.5197 51.0111 28.2071C51.0111 27.8945 50.7578 27.6411 50.4454 27.6411ZM50.0773 31.0998C49.7802 31.0032 49.461 31.1659 49.3645 31.4631C49.2679 31.7605 49.4305 32.0798 49.7277 32.1763C50.0248 32.273 50.3439 32.1102 50.4405 31.8129C50.537 31.5157 50.3744 31.1964 50.0773 31.0998ZM46.6699 34.7115C45.6668 33.9823 44.4652 33.7295 43.3292 33.8978C43.0733 33.9354 42.8196 33.9871 42.5732 34.0673C42.5733 34.0679 42.5736 34.0685 42.5738 34.069C42.5731 34.0693 42.5723 34.0694 42.5716 34.0696C42.7799 34.7125 43.1326 35.3018 43.5987 35.7959C44.106 36.3345 44.7487 36.7596 45.5022 37.0045C46.457 37.3149 47.4409 37.2947 48.3272 37.0008C48.3272 37.0007 48.3272 37.0007 48.3272 37.0007C48.3273 37.0006 48.3275 37.0006 48.3276 37.0005C48.0441 36.1103 47.4822 35.302 46.6699 34.7115ZM47.4842 37.8927C47.2314 37.709 46.8777 37.7651 46.694 38.0179C46.5104 38.2708 46.5665 38.6248 46.8192 38.8085C47.072 38.9923 47.4257 38.9362 47.6093 38.6833C47.793 38.4304 47.737 38.0765 47.4842 37.8927ZM40.3005 35.7209C39.714 36.5286 39.4304 37.4642 39.4327 38.3923C39.4327 38.3923 41.1072 36.7031 43.0275 37.7399C43.1948 38.7259 43.8057 39.6237 44.7632 40.1169C45.408 40.4492 46.1119 40.5489 46.778 40.4422C46.6764 39.7758 46.3706 39.1331 45.8605 38.6176C45.0981 37.8477 44.0469 37.5357 43.0499 37.6793C41.49 36.1732 42.5716 34.0696 42.5716 34.0696C41.6886 34.3543 40.887 34.9132 40.3005 35.7209ZM45.2497 40.9699C44.997 40.7861 44.6432 40.8422 44.4596 41.095C44.276 41.348 44.332 41.7019 44.5847 41.8856C44.8375 42.0694 45.1912 42.0133 45.3749 41.7605C45.5585 41.5076 45.5025 41.1536 45.2497 40.9699ZM48.9026 34.7171C48.6055 34.6207 48.2863 34.7832 48.1898 35.0805C48.0932 35.3778 48.2558 35.6971 48.553 35.7937C48.85 35.8903 49.1692 35.7276 49.2658 35.4303C49.3623 35.133 49.1996 34.8137 48.9026 34.7171ZM13.3871 42.0946C14.3909 41.365 15.0028 40.2988 15.1934 39.1652C15.2366 38.9107 15.2658 38.6538 15.2655 38.3952C15.265 38.3952 15.2643 38.3953 15.2637 38.3953C15.2637 38.3946 15.2639 38.3938 15.2639 38.393C14.58 38.3926 13.9023 38.5488 13.2824 38.8468C12.6228 39.1634 12.0289 39.6407 11.5685 40.2748C10.9783 41.0875 10.6935 42.03 10.6991 42.9643H10.6992C10.6992 42.9644 10.6992 42.9645 10.6992 42.9646C11.633 42.97 12.5749 42.6851 13.3871 42.0946ZM8.00248 38.0186C7.81884 37.7657 7.46512 37.7096 7.21233 37.8934C6.9596 38.0771 6.90356 38.4311 7.0872 38.684C7.27084 38.9368 7.62457 38.9929 7.8773 38.8092C8.13003 38.6254 8.18607 38.2715 8.00248 38.0186ZM12.1218 31.2563C11.8135 30.3067 11.2237 29.5272 10.4719 28.9835C10.4719 28.9835 10.8536 31.3319 8.88644 32.2769C7.99085 31.8328 6.90592 31.7995 5.94422 32.2847C5.29663 32.6114 4.8022 33.1224 4.49697 33.7243C5.09555 34.0338 5.79496 34.1641 6.51158 34.0542C7.58227 33.8896 8.45236 33.222 8.92233 32.3306C11.0571 31.9532 12.1222 34.0652 12.1222 34.0652C12.411 33.1832 12.4302 32.2057 12.1218 31.2563ZM9.19414 37.0053C10.3722 36.6224 11.2824 35.7995 11.8142 34.7823C11.9349 34.5523 12.0428 34.3155 12.1231 34.0678C12.1225 34.0676 12.1219 34.0676 12.1213 34.0674C12.1216 34.0667 12.1219 34.0659 12.1222 34.0652C11.477 33.8551 10.7899 33.7941 10.1136 33.8827C9.38301 33.9779 8.66482 34.2483 8.02652 34.7122C7.21419 35.3027 6.65234 36.111 6.369 37.0012C6.369 37.0013 6.36907 37.0013 6.36912 37.0013L6.369 37.0016C7.25548 37.2955 8.23924 37.3158 9.19414 37.0053ZM9.44676 40.9706C9.19403 41.1543 9.13799 41.5083 9.32163 41.7612C9.50527 42.014 9.859 42.0701 10.1118 41.8864C10.3645 41.7026 10.4206 41.3487 10.2369 41.0958C10.0533 40.8429 9.69955 40.7868 9.44676 40.9706ZM12.1249 34.0704C12.1249 34.0704 13.2132 36.1857 11.6342 37.6927C10.6453 37.5472 9.60317 37.851 8.83839 38.6098C8.32335 39.1207 8.01104 39.7596 7.90662 40.4264C8.57142 40.5357 9.27685 40.4434 9.92444 40.1173C10.8919 39.6298 11.5133 38.7257 11.6849 37.7326C13.5986 36.7137 15.2639 38.393 15.2639 38.393C15.2662 37.4649 14.9825 36.5293 14.396 35.7217C13.8095 34.9139 13.0078 34.355 12.1249 34.0704ZM6.77809 30.8688C8.01841 30.8688 9.13957 30.3664 9.95971 29.5615C10.1444 29.3809 10.319 29.1901 10.471 28.9806C10.4704 28.9802 10.47 28.9799 10.4695 28.9795C10.4699 28.9789 10.4704 28.9784 10.4709 28.9778C9.9192 28.5762 9.28151 28.3027 8.60675 28.1789C7.88574 28.0458 7.12248 28.0842 6.37581 28.3269C5.42098 28.6373 4.63695 29.2323 4.09249 29.9914C4.09249 29.9914 4.09255 29.9914 4.0926 29.9914C4.09255 29.9916 4.09244 29.9916 4.09238 29.9917C4.84468 30.5453 5.77408 30.8688 6.77809 30.8688ZM10.4709 23.6346C10.4709 23.6346 10.1086 25.986 7.94584 26.2765C7.2313 25.5773 6.20972 25.2102 5.14528 25.3743C4.42844 25.4848 3.80043 25.818 3.32422 26.296C3.79784 26.7754 4.42276 27.1155 5.13831 27.2326C6.20742 27.4072 7.24119 27.0412 7.96339 26.3387C10.1102 26.6398 10.4709 28.9778 10.4709 28.9778C11.018 28.2283 11.3382 27.3045 11.3382 26.3062C11.3382 25.3078 11.018 24.3841 10.4709 23.6346ZM4.96862 32.1772C5.26569 32.0805 5.42829 31.7613 5.3318 31.464C5.23525 31.1667 4.91613 31.004 4.619 31.1007C4.32188 31.1972 4.15927 31.5165 4.25582 31.8138C4.35237 32.1111 4.6715 32.2738 4.96862 32.1772ZM6.50652 35.0814C6.40997 34.7841 6.09089 34.6214 5.79371 34.718C5.49664 34.8145 5.33405 35.1339 5.43049 35.4312C5.52709 35.7285 5.84615 35.8911 6.14328 35.7946C6.44046 35.698 6.60306 35.3787 6.50652 35.0814ZM18.5781 47.159C18.2809 47.0624 17.9618 47.2251 17.8653 47.5224C17.7687 47.8196 17.9313 48.1389 18.2285 48.2356C18.5256 48.3321 18.8446 48.1694 18.9412 47.8722C19.0377 47.5749 18.8751 47.2556 18.5781 47.159ZM22.1935 48.3343C21.8964 48.2377 21.5772 48.4005 21.4807 48.6978C21.3841 48.995 21.5467 49.3143 21.8439 49.4109C22.141 49.5075 22.46 49.3448 22.5567 49.0475C22.6531 48.7502 22.4905 48.4309 22.1935 48.3343ZM25.4477 48.85C25.1353 48.85 24.8821 49.1033 24.8821 49.4159C24.8821 49.7286 25.1353 49.9819 25.4477 49.9819C25.7601 49.9819 26.0133 49.7286 26.0133 49.4159C26.0133 49.1033 25.7601 48.85 25.4477 48.85ZM22.4011 41.5405C21.4521 41.232 20.4751 41.2513 19.5936 41.5402C19.5936 41.5402 21.7168 42.6116 21.3247 44.7594C20.4392 45.2233 19.7746 46.0819 19.6016 47.1456C19.4851 47.8619 19.6077 48.5624 19.915 49.1633C20.517 48.8607 21.0335 48.3712 21.3658 47.7265C21.8621 46.763 21.8338 45.6663 21.3892 44.762C22.3388 42.8122 24.6726 43.1914 24.6726 43.1914C24.1291 42.4392 23.3501 41.8491 22.4011 41.5405ZM25.0499 43.8058C24.9409 43.5922 24.8165 43.3865 24.6752 43.1922C24.6748 43.1925 24.6743 43.1929 24.6739 43.1933C24.6734 43.1927 24.673 43.192 24.6726 43.1914C24.1233 43.5901 23.6702 44.1105 23.3444 44.7101C22.9919 45.3574 22.7885 46.0977 22.7885 46.8869C22.7885 47.8916 23.1117 48.8215 23.665 49.5741C23.665 49.5741 23.665 49.5741 23.6651 49.5741C23.6651 49.5741 23.6652 49.5743 23.6653 49.5743C24.424 49.0296 25.0186 48.2452 25.3289 47.2897C25.7183 46.0904 25.5823 44.8451 25.0499 43.8058ZM12.5668 43.4267C12.314 43.243 11.9603 43.299 11.7766 43.5519C11.5931 43.8049 11.6491 44.1588 11.9018 44.3425C12.1545 44.5263 12.5083 44.4702 12.6919 44.2173C12.8755 43.9644 12.8195 43.6105 12.5668 43.4267ZM18.9468 45.6384C19.6745 44.6363 19.9276 43.4362 19.7609 42.3012C19.7234 42.0434 19.6715 41.7876 19.5907 41.5393C19.5901 41.5395 19.5896 41.5398 19.589 41.5399C19.5888 41.5392 19.5887 41.5385 19.5884 41.5377C18.9421 41.7474 18.3498 42.1027 17.8543 42.573C17.3201 43.0794 16.8986 43.72 16.6552 44.4699C16.3449 45.4253 16.3651 46.4096 16.6589 47.2965H16.659C16.659 47.2967 16.6591 47.2967 16.6591 47.2968C17.5488 47.0133 18.3567 46.4511 18.9468 45.6384ZM15.6422 45.6624C15.3895 45.4788 15.0358 45.5348 14.8521 45.7877C14.6685 46.0405 14.7245 46.3945 14.9773 46.5782C15.23 46.762 15.5838 46.706 15.7674 46.453C15.951 46.2002 15.895 45.8462 15.6422 45.6624ZM4.81621 28.2079C4.81621 27.8954 4.56302 27.642 4.25059 27.642C3.93811 27.642 3.68493 27.8954 3.68493 28.2079C3.68493 28.5205 3.93811 28.774 4.25059 28.774C4.56302 28.774 4.81621 28.5205 4.81621 28.2079ZM17.938 39.2654C17.1308 38.6786 16.1957 38.3947 15.2681 38.397C15.2681 38.397 16.9564 40.0724 15.9201 41.9939C14.9347 42.1613 14.0374 42.7724 13.5444 43.7305C13.2124 44.3757 13.1127 45.0799 13.2193 45.7464C13.8853 45.6447 14.5277 45.3388 15.0429 44.8284C15.8125 44.0656 16.1242 43.0138 15.9806 42.0162C17.486 40.4555 19.5884 41.5377 19.5884 41.5377C19.304 40.6543 18.7452 39.8522 17.938 39.2654Z" fill="#FFE1B6"/>
<path d="M27.2399 53.2787C12.559 53.2787 0.615234 41.3282 0.615234 26.6394C0.615234 11.9504 12.559 0 27.2399 0C41.9208 0 53.8644 11.9504 53.8644 26.6394C53.8644 41.3282 41.9208 53.2787 27.2399 53.2787ZM27.2399 0.782036C12.99 0.782036 1.39684 12.3816 1.39684 26.6394C1.39684 40.8971 12.99 52.4967 27.2399 52.4967C41.4897 52.4967 53.0828 40.8971 53.0828 26.6394C53.0828 12.3816 41.4897 0.782036 27.2399 0.782036Z" fill="#FFE1B6"/>
<path d="M22.6218 23.6509C22.5307 24.4326 22.5234 25.2146 22.6179 25.9963C21.8632 26.04 21.2279 25.8095 21.2491 26.729L21.2585 28.2798C22.5416 29.5 24.9391 29.7517 26.6801 28.8813C29.0116 27.685 29.6156 23.9308 27.7382 21.5659C28.4046 20.9599 29.1668 20.6003 30.0742 20.6139C30.8782 21.8594 31.3418 23.2634 31.3655 24.8723C31.0376 31.2982 25.5149 32.893 21.2377 31.0537L21.2046 33.3979C21.1912 33.8411 21.1671 33.858 20.7663 33.8659H19.3102C18.9178 33.8659 18.8828 33.8978 18.8828 33.3803V24.0929C18.8828 23.6773 18.9338 23.6724 19.3183 23.6654L22.6218 23.6509ZM26.2813 17.9504C25.3976 18.3709 24.8221 19.0165 24.2181 19.6718C23.9771 19.9334 23.9843 19.9441 23.6308 20.0088C22.678 20.183 21.7845 20.5801 20.9442 21.1863C20.4978 21.1863 19.7188 20.3932 19.5084 19.8724C19.4355 19.6915 19.4322 19.677 19.5467 19.5385C20.8533 17.958 23.9719 17.1571 26.2813 17.9504ZM31.8205 26.0226C31.9396 25.2544 31.943 24.4319 31.8287 23.6466H35.068C35.2433 23.6443 35.5734 23.654 35.5958 24.1863V33.5789C35.5995 33.8642 35.523 33.8677 35.3301 33.8662H33.5031C33.3211 33.8671 33.2632 33.8572 33.2629 33.6083L33.2599 31.0712C31.6511 31.8016 29.9073 31.9223 28.0441 31.5034C29.1153 31.0747 29.9277 30.3878 30.5159 29.4153C31.6487 29.273 32.3935 28.9552 32.9199 28.5643C33.2139 28.3458 33.2469 28.2215 33.2471 27.8531L33.2483 26.3345C33.2365 26.0255 33.0643 26.0342 32.9029 26.0138L31.8205 26.0226ZM34.9802 19.8944L33.9402 21.0307C33.6513 21.3426 33.6759 21.2616 33.3443 21.009C33.2278 20.9204 33.1046 20.8424 32.9806 20.7674C31.4485 19.8393 29.5282 19.7488 28.1842 20.4251C25.7127 21.6688 24.5317 25.2099 26.8181 28.1259C26.1375 28.6093 25.246 28.8008 24.1984 28.7751C20.8674 23.358 25.4827 16.1645 31.9494 17.8841C32.927 18.144 33.889 18.6533 34.8995 19.3962C35.1915 19.611 35.2436 19.6189 34.9802 19.8944Z" fill="#FFE1B6"/>
</svg>
